<svg width="34" height="34" viewBox="0 0 34 34" fill="none" xmlns="http://www.w3.org/2000/svg">
<rect opacity="0.1" width="34" height="34" rx="5" fill="#F2F2F2"/>
<path d="M15.7173 16.3334C16.1173 16.3334 16.4413 16.6334 16.434 17C16.434 17.3667 16.118 17.6667 15.7173 17.6667C15.324 17.6667 15 17.3667 15 17C15 16.6334 15.3167 16.3334 15.7173 16.3334ZM18.2827 16.3334C18.6833 16.3334 19 16.6334 19 17C19 17.3667 18.6833 17.6667 18.2827 17.6667C17.8893 17.6667 17.566 17.3667 17.566 17C17.566 16.6334 17.882 16.3334 18.2827 16.3334ZM21.594 10.3334C22.3693 10.3334 23 10.9774 23 11.7754V24.3334L21.526 23.0034L20.696 22.2194L19.818 21.386L20.182 22.6814H12.406C11.6307 22.6814 11 22.0374 11 21.2394V11.7754C11 10.9774 11.6307 10.3334 12.406 10.3334H21.5933H21.594ZM18.9473 19.4754C20.4627 19.4267 21.046 18.4114 21.046 18.4114C21.046 16.1574 20.058 14.33 20.058 14.33C19.0713 13.5747 18.1313 13.5954 18.1313 13.5954L18.0353 13.7074C19.2013 14.0714 19.7427 14.5967 19.7427 14.5967C19.106 14.238 18.4044 14.0096 17.6787 13.9247C17.2183 13.8727 16.7533 13.8772 16.294 13.938C16.2527 13.938 16.218 13.9454 16.1773 13.952C15.9373 13.9734 15.354 14.064 14.6207 14.3934C14.3673 14.512 14.216 14.5967 14.216 14.5967C14.216 14.5967 14.7853 14.0434 16.0193 13.6794L15.9507 13.5954C15.9507 13.5954 15.0113 13.5747 14.024 14.3307C14.024 14.3307 13.0367 16.1574 13.0367 18.4114C13.0367 18.4114 13.6127 19.426 15.128 19.4754C15.128 19.4754 15.3813 19.1607 15.588 18.8947C14.7167 18.628 14.388 18.068 14.388 18.068C14.388 18.068 14.456 18.1174 14.5793 18.1874C14.586 18.194 14.5927 18.2014 14.6067 18.208C14.6273 18.2227 14.648 18.2294 14.6687 18.2434C14.84 18.3414 15.0113 18.418 15.1687 18.4814C15.45 18.5934 15.786 18.7054 16.1773 18.7827C16.7635 18.8976 17.3663 18.8999 17.9533 18.7894C18.2953 18.7283 18.6289 18.6274 18.9473 18.4887C19.1873 18.3974 19.4547 18.264 19.736 18.0754C19.736 18.0754 19.3933 18.6494 18.4947 18.9087C18.7007 19.1747 18.948 19.4754 18.948 19.4754H18.9473Z" fill="#F9F9F9"/>
</svg>
