<svg width="34" height="34" viewBox="0 0 34 34" fill="none" xmlns="http://www.w3.org/2000/svg">
<rect width="34" height="34" rx="5" fill="#2D88FF"/>
<path d="M20.6773 9.73105L18.8412 9.72803C16.7784 9.72803 15.4453 11.1329 15.4453 13.3074V14.9578H13.5993C13.4397 14.9578 13.3105 15.0906 13.3105 15.2545V17.6457C13.3105 17.8095 13.4399 17.9422 13.5993 17.9422H15.4453V23.9759C15.4453 24.1398 15.5745 24.2725 15.7341 24.2725H18.1427C18.3022 24.2725 18.4314 24.1396 18.4314 23.9759V17.9422H20.5899C20.7494 17.9422 20.8786 17.8095 20.8786 17.6457L20.8795 15.2545C20.8795 15.1758 20.849 15.1005 20.7949 15.0448C20.7409 14.9891 20.6672 14.9578 20.5906 14.9578H18.4314V13.5588C18.4314 12.8863 18.5874 12.545 19.4401 12.545L20.677 12.5445C20.8363 12.5445 20.9655 12.4117 20.9655 12.248V10.0276C20.9655 9.86406 20.8365 9.73136 20.6773 9.73105Z" fill="white"/>
</svg>
