<svg width="34" height="34" viewBox="0 0 34 34" fill="none" xmlns="http://www.w3.org/2000/svg">
<rect opacity="0.1" width="34" height="34" rx="5" fill="#F2F2F2"/>
<path d="M11.6667 11H22.3333C22.5101 11 22.6797 11.0702 22.8047 11.1953C22.9298 11.3203 23 11.4899 23 11.6667V22.3333C23 22.5101 22.9298 22.6797 22.8047 22.8047C22.6797 22.9298 22.5101 23 22.3333 23H11.6667C11.4899 23 11.3203 22.9298 11.1953 22.8047C11.0702 22.6797 11 22.5101 11 22.3333V11.6667C11 11.4899 11.0702 11.3203 11.1953 11.1953C11.3203 11.0702 11.4899 11 11.6667 11V11ZM20.5333 19.6267C20.4667 19.5933 20.4333 19.4933 20.4333 19.426V14.3373C20.4333 14.2707 20.4667 14.1707 20.5333 14.1033L21.17 13.3667V13.3333H18.8933L17.1867 17.652L15.244 13.3333H12.9013V13.3667L13.5033 14.204C13.6373 14.3373 13.6707 14.5387 13.6707 14.706V18.388C13.704 18.5893 13.6707 18.8233 13.5707 19.024L12.6667 20.2627V20.296H15.0773V20.2627L14.1733 19.058C14.0733 18.8567 14.0393 18.656 14.0733 18.422V15.0733C14.1067 15.14 14.14 15.14 14.1733 15.274L16.4493 20.3627H16.4827L18.6933 14.84C18.66 15.04 18.66 15.2747 18.66 15.4427V19.3927C18.66 19.4927 18.6267 19.5593 18.56 19.6267L17.89 20.2627V20.296H21.1707V20.2627L20.5347 19.6267H20.5333Z" fill="white"/>
</svg>
