<svg width="34" height="34" viewBox="0 0 34 34" fill="none" xmlns="http://www.w3.org/2000/svg">
<rect opacity="0.1" width="34" height="34" rx="5" fill="#F2F2F2"/>
<path d="M16.9997 23.6667C13.3177 23.6667 10.333 20.682 10.333 17C10.333 13.318 13.3177 10.3334 16.9997 10.3334C20.6817 10.3334 23.6663 13.318 23.6663 17C23.6663 20.682 20.6817 23.6667 16.9997 23.6667ZM21.4463 17C21.4395 16.8124 21.3785 16.6307 21.2707 16.477C21.1629 16.3232 21.013 16.2039 20.8389 16.1334C20.6649 16.0629 20.4741 16.0443 20.2897 16.0798C20.1053 16.1153 19.9352 16.2033 19.7997 16.3334C19.0413 15.8179 18.1498 15.533 17.233 15.5134L17.6663 13.4334L19.093 13.7334C19.11 13.891 19.1826 14.0375 19.2978 14.1464C19.413 14.2554 19.5632 14.3197 19.7216 14.3279C19.88 14.336 20.036 14.2874 20.1618 14.1909C20.2876 14.0943 20.3748 13.9561 20.4079 13.801C20.4409 13.6459 20.4176 13.4842 20.3421 13.3447C20.2667 13.2053 20.1439 13.0973 19.996 13.0402C19.8481 12.983 19.6847 12.9805 19.5351 13.033C19.3854 13.0855 19.2594 13.1897 19.1797 13.3267L17.5463 13C17.5196 12.9942 17.492 12.9937 17.4651 12.9986C17.4382 13.0035 17.4125 13.0136 17.3896 13.0285C17.3666 13.0434 17.3469 13.0627 17.3314 13.0853C17.316 13.1078 17.3052 13.1333 17.2997 13.16L16.8063 15.4734C15.8783 15.4874 14.9745 15.7724 14.2063 16.2934C14.1036 16.1967 13.981 16.1235 13.8471 16.0789C13.7133 16.0342 13.5713 16.0193 13.431 16.035C13.2908 16.0507 13.1557 16.0967 13.035 16.1698C12.9143 16.2429 12.8109 16.3414 12.7321 16.4585C12.6533 16.5755 12.6008 16.7083 12.5784 16.8476C12.556 16.9869 12.5641 17.1294 12.6022 17.2653C12.6404 17.4012 12.7076 17.5271 12.7992 17.6344C12.8909 17.7417 13.0048 17.8278 13.133 17.8867C13.1255 17.9843 13.1255 18.0824 13.133 18.18C13.133 19.6734 14.873 20.8867 17.0197 20.8867C19.1663 20.8867 20.9063 19.6734 20.9063 18.18C20.9138 18.0824 20.9138 17.9843 20.9063 17.8867C21.0709 17.8049 21.2089 17.6783 21.3044 17.5214C21.4 17.3645 21.4492 17.1837 21.4463 17V17ZM14.7797 17.6667C14.7797 17.4899 14.8499 17.3203 14.9749 17.1953C15.1 17.0703 15.2695 17 15.4463 17C15.6232 17 15.7927 17.0703 15.9177 17.1953C16.0428 17.3203 16.113 17.4899 16.113 17.6667C16.113 17.8435 16.0428 18.0131 15.9177 18.1381C15.7927 18.2631 15.6232 18.3334 15.4463 18.3334C15.2695 18.3334 15.1 18.2631 14.9749 18.1381C14.8499 18.0131 14.7797 17.8435 14.7797 17.6667ZM18.653 19.5C18.18 19.8565 17.5981 20.0379 17.0063 20.0134C16.4146 20.0379 15.8327 19.8565 15.3597 19.5C15.3313 19.4655 15.3168 19.4216 15.319 19.377C15.3212 19.3324 15.3399 19.2902 15.3715 19.2586C15.4031 19.227 15.4454 19.2083 15.49 19.2061C15.5346 19.2039 15.5785 19.2184 15.613 19.2467C16.0138 19.5407 16.5031 19.6889 16.9997 19.6667C17.4969 19.6937 17.9884 19.5503 18.393 19.26C18.4101 19.2409 18.4309 19.2256 18.4541 19.2148C18.4774 19.2041 18.5026 19.1983 18.5282 19.1977C18.5537 19.1972 18.5792 19.2019 18.6029 19.2116C18.6266 19.2213 18.648 19.2357 18.6659 19.254C18.6838 19.2724 18.6977 19.2942 18.7068 19.3181C18.7159 19.3421 18.7199 19.3676 18.7187 19.3932C18.7175 19.4188 18.711 19.4438 18.6997 19.4668C18.6884 19.4897 18.6725 19.5101 18.653 19.5267V19.5V19.5ZM18.533 18.36C18.4012 18.36 18.2723 18.3209 18.1626 18.2477C18.053 18.1744 17.9675 18.0703 17.9171 17.9485C17.8666 17.8267 17.8534 17.6926 17.8792 17.5633C17.9049 17.434 17.9684 17.3152 18.0616 17.222C18.1548 17.1287 18.2736 17.0652 18.4029 17.0395C18.5323 17.0138 18.6663 17.027 18.7881 17.0775C18.9099 17.1279 19.0141 17.2134 19.0873 17.323C19.1606 17.4326 19.1997 17.5615 19.1997 17.6934C19.2033 17.7837 19.1885 17.8738 19.1562 17.9583C19.1239 18.0427 19.0748 18.1197 19.0118 18.1845C18.9488 18.2494 18.8733 18.3008 18.7898 18.3355C18.7064 18.3703 18.6167 18.3877 18.5263 18.3867L18.533 18.36Z" fill="#F9F9F9"/>
</svg>
