<svg width="34" height="34" viewBox="0 0 34 34" fill="none" xmlns="http://www.w3.org/2000/svg">
<rect opacity="0.1" width="34" height="34" rx="5" fill="#F2F2F2"/>
<path d="M16.9997 23.6667C13.3177 23.6667 10.333 20.682 10.333 17C10.333 13.318 13.3177 10.3334 16.9997 10.3334C20.6817 10.3334 23.6663 13.318 23.6663 17C23.6663 20.682 20.6817 23.6667 16.9997 23.6667ZM14.9263 17.78L14.935 17.7754L15.515 19.6887C15.5897 19.896 15.6923 19.9334 15.817 19.916C15.9423 19.8994 16.0083 19.832 16.0903 19.7534L16.8823 18.988L18.5823 20.2467C18.893 20.418 19.1163 20.3294 19.1937 19.9587L20.2983 14.744C20.4203 14.2587 20.207 14.064 19.8303 14.2187L13.3417 16.7254C12.899 16.9027 12.9017 17.1507 13.2617 17.2607L14.9263 17.7807V17.78Z" fill="#F9F9F9"/>
</svg>
