<svg width="34" height="34" viewBox="0 0 34 34" fill="none" xmlns="http://www.w3.org/2000/svg">
<rect opacity="0.1" width="34" height="34" rx="5" fill="#F2F2F2"/>
<path d="M23.7742 12.7706C23.2653 12.9957 22.7255 13.1436 22.1729 13.2093C22.7554 12.8609 23.1914 12.3126 23.3995 11.6666C22.8529 11.992 22.2535 12.22 21.6289 12.3433C21.2093 11.8943 20.6531 11.5966 20.0469 11.4963C19.4406 11.3961 18.8182 11.4989 18.2764 11.7889C17.7346 12.0789 17.3038 12.5397 17.051 13.0998C16.7981 13.6599 16.7374 14.2878 16.8782 14.886C15.7696 14.8304 14.6851 14.5423 13.6951 14.0404C12.705 13.5385 11.8316 12.834 11.1315 11.9726C10.8837 12.3983 10.7535 12.8821 10.7542 13.3746C10.7542 14.3413 11.2462 15.1953 11.9942 15.6953C11.5516 15.6813 11.1186 15.5618 10.7315 15.3466V15.3813C10.7317 16.0251 10.9545 16.649 11.3621 17.1473C11.7698 17.6456 12.3372 17.9876 12.9682 18.1153C12.5573 18.2266 12.1264 18.2431 11.7082 18.1633C11.8861 18.7174 12.2329 19.2021 12.6999 19.5494C13.167 19.8966 13.731 20.0891 14.3129 20.1C13.7345 20.5542 13.0723 20.8899 12.3641 21.0881C11.6559 21.2862 10.9156 21.3428 10.1855 21.2546C11.46 22.0742 12.9436 22.5094 14.4589 22.508C19.5875 22.508 22.3922 18.2593 22.3922 14.5746C22.3922 14.4546 22.3889 14.3333 22.3835 14.2146C22.9295 13.8201 23.4006 13.3313 23.7749 12.7713L23.7742 12.7706Z" fill="#F9F9F9"/>
</svg>
