<svg width="34" height="34" viewBox="0 0 34 34" fill="none" xmlns="http://www.w3.org/2000/svg">
<rect opacity="0.1" width="34" height="34" rx="5" fill="#F2F2F2"/>
<path d="M23.3617 13.332C23.6663 14.52 23.6663 17 23.6663 17C23.6663 17 23.6663 19.48 23.3617 20.668C23.1923 21.3246 22.697 21.8413 22.0697 22.016C20.9303 22.3333 16.9997 22.3333 16.9997 22.3333C16.9997 22.3333 13.071 22.3333 11.9297 22.016C11.2997 21.8386 10.805 21.3226 10.6377 20.668C10.333 19.48 10.333 17 10.333 17C10.333 17 10.333 14.52 10.6377 13.332C10.807 12.6753 11.3023 12.1586 11.9297 11.984C13.071 11.6666 16.9997 11.6666 16.9997 11.6666C16.9997 11.6666 20.9303 11.6666 22.0697 11.984C22.6997 12.1613 23.1943 12.6773 23.3617 13.332V13.332ZM15.6663 19.3333L19.6663 17L15.6663 14.6666V19.3333Z" fill="#F9F9F9"/>
</svg>
